# xmcd
# Copyright (C) 1995-1998 Ti Kan
#
# Track frame offsets:
#       150
#       6949
#       16597
#
# Disc length: 442 seconds
#
# Revision: 0
# Processed by: cddbd v1.5.2PL0 Copyright (c) Steve Scherf et al.
# Submitted via: CD-Import v1.0
#
DISCID=1201b803
DTITLE=Highnoon - Kulinarium
DYEAR=1900
DGENRE=
TTITLE0=Kulinarium
TTITLE1=Grill
TTITLE2=Ghrt
EXTD=
EXTT0=
EXTT1=
EXTT2=
PLAYORDER=
